<mxfile host="Electron" agent="Mozilla/5.0 (Windows NT 10.0; Win64; x64) AppleWebKit/537.36 (KHTML, like Gecko) draw.io/27.0.9 Chrome/134.0.6998.205 Electron/35.4.0 Safari/537.36" version="27.0.9">
  <diagram name="Page-1" id="DUBIDazjP9eHHbAP2wyh">
    <mxGraphModel dx="1028" dy="611" grid="1" gridSize="10" guides="1" tooltips="1" connect="1" arrows="1" fold="1" page="1" pageScale="1" pageWidth="827" pageHeight="1169" math="0" shadow="0">
      <root>
        <mxCell id="0" />
        <mxCell id="1" parent="0" />
        <mxCell id="qpkhU5V2J4nq5vDn6lTO-10" style="edgeStyle=orthogonalEdgeStyle;rounded=0;orthogonalLoop=1;jettySize=auto;html=1;entryX=0.5;entryY=0;entryDx=0;entryDy=0;" edge="1" parent="1" source="qpkhU5V2J4nq5vDn6lTO-1" target="qpkhU5V2J4nq5vDn6lTO-9">
          <mxGeometry relative="1" as="geometry" />
        </mxCell>
        <mxCell id="qpkhU5V2J4nq5vDn6lTO-1" value="" style="rounded=0;whiteSpace=wrap;html=1;fillColor=none;" vertex="1" parent="1">
          <mxGeometry x="340" y="80" width="240" height="240" as="geometry" />
        </mxCell>
        <mxCell id="qpkhU5V2J4nq5vDn6lTO-2" value="Space Facts CSV" style="rounded=0;whiteSpace=wrap;html=1;" vertex="1" parent="1">
          <mxGeometry x="400" y="130" width="120" height="60" as="geometry" />
        </mxCell>
        <mxCell id="qpkhU5V2J4nq5vDn6lTO-3" value="Document Loading" style="rounded=0;whiteSpace=wrap;html=1;" vertex="1" parent="1">
          <mxGeometry x="400" y="200" width="120" height="60" as="geometry" />
        </mxCell>
        <mxCell id="qpkhU5V2J4nq5vDn6lTO-6" value="Data Ingestion" style="text;html=1;align=center;verticalAlign=middle;whiteSpace=wrap;rounded=0;" vertex="1" parent="1">
          <mxGeometry x="410" y="80" width="100" height="50" as="geometry" />
        </mxCell>
        <mxCell id="qpkhU5V2J4nq5vDn6lTO-7" value="" style="rounded=0;whiteSpace=wrap;html=1;gradientColor=none;fillColor=none;" vertex="1" parent="1">
          <mxGeometry x="265" y="360" width="390" height="320" as="geometry" />
        </mxCell>
        <mxCell id="qpkhU5V2J4nq5vDn6lTO-15" style="edgeStyle=orthogonalEdgeStyle;rounded=0;orthogonalLoop=1;jettySize=auto;html=1;entryX=0.5;entryY=0;entryDx=0;entryDy=0;" edge="1" parent="1" source="qpkhU5V2J4nq5vDn6lTO-9" target="qpkhU5V2J4nq5vDn6lTO-12">
          <mxGeometry relative="1" as="geometry" />
        </mxCell>
        <mxCell id="qpkhU5V2J4nq5vDn6lTO-16" style="edgeStyle=orthogonalEdgeStyle;rounded=0;orthogonalLoop=1;jettySize=auto;html=1;" edge="1" parent="1" source="qpkhU5V2J4nq5vDn6lTO-9" target="qpkhU5V2J4nq5vDn6lTO-13">
          <mxGeometry relative="1" as="geometry" />
        </mxCell>
        <mxCell id="qpkhU5V2J4nq5vDn6lTO-17" style="edgeStyle=orthogonalEdgeStyle;rounded=0;orthogonalLoop=1;jettySize=auto;html=1;entryX=0.5;entryY=0;entryDx=0;entryDy=0;" edge="1" parent="1" source="qpkhU5V2J4nq5vDn6lTO-9" target="qpkhU5V2J4nq5vDn6lTO-14">
          <mxGeometry relative="1" as="geometry" />
        </mxCell>
        <mxCell id="qpkhU5V2J4nq5vDn6lTO-9" value="Embedding Model Selection" style="rhombus;whiteSpace=wrap;html=1;" vertex="1" parent="1">
          <mxGeometry x="395" y="380" width="130" height="140" as="geometry" />
        </mxCell>
        <mxCell id="qpkhU5V2J4nq5vDn6lTO-11" value="Embedding Layer" style="text;html=1;align=center;verticalAlign=middle;whiteSpace=wrap;rounded=0;" vertex="1" parent="1">
          <mxGeometry x="270" y="360" width="110" height="30" as="geometry" />
        </mxCell>
        <mxCell id="qpkhU5V2J4nq5vDn6lTO-28" style="edgeStyle=orthogonalEdgeStyle;rounded=0;orthogonalLoop=1;jettySize=auto;html=1;entryX=0;entryY=0.5;entryDx=0;entryDy=0;" edge="1" parent="1" source="qpkhU5V2J4nq5vDn6lTO-12" target="qpkhU5V2J4nq5vDn6lTO-25">
          <mxGeometry relative="1" as="geometry">
            <mxPoint x="320" y="790" as="targetPoint" />
          </mxGeometry>
        </mxCell>
        <mxCell id="qpkhU5V2J4nq5vDn6lTO-12" value="OpenAI Embeddings" style="rounded=1;whiteSpace=wrap;html=1;" vertex="1" parent="1">
          <mxGeometry x="270" y="560" width="90" height="40" as="geometry" />
        </mxCell>
        <mxCell id="qpkhU5V2J4nq5vDn6lTO-29" style="edgeStyle=orthogonalEdgeStyle;rounded=0;orthogonalLoop=1;jettySize=auto;html=1;entryX=0.5;entryY=0;entryDx=0;entryDy=0;" edge="1" parent="1" source="qpkhU5V2J4nq5vDn6lTO-13" target="qpkhU5V2J4nq5vDn6lTO-25">
          <mxGeometry relative="1" as="geometry" />
        </mxCell>
        <mxCell id="qpkhU5V2J4nq5vDn6lTO-13" value="Chroma Default" style="rounded=1;whiteSpace=wrap;html=1;" vertex="1" parent="1">
          <mxGeometry x="415" y="560" width="90" height="40" as="geometry" />
        </mxCell>
        <mxCell id="qpkhU5V2J4nq5vDn6lTO-30" style="edgeStyle=orthogonalEdgeStyle;rounded=0;orthogonalLoop=1;jettySize=auto;html=1;entryX=1;entryY=0.5;entryDx=0;entryDy=0;" edge="1" parent="1" source="qpkhU5V2J4nq5vDn6lTO-14" target="qpkhU5V2J4nq5vDn6lTO-25">
          <mxGeometry relative="1" as="geometry" />
        </mxCell>
        <mxCell id="qpkhU5V2J4nq5vDn6lTO-14" value="Nomic Embed Text" style="rounded=1;whiteSpace=wrap;html=1;" vertex="1" parent="1">
          <mxGeometry x="560" y="560" width="90" height="40" as="geometry" />
        </mxCell>
        <mxCell id="qpkhU5V2J4nq5vDn6lTO-18" value="Option 1" style="text;html=1;align=center;verticalAlign=middle;whiteSpace=wrap;rounded=0;" vertex="1" parent="1">
          <mxGeometry x="285" y="520" width="60" height="30" as="geometry" />
        </mxCell>
        <mxCell id="qpkhU5V2J4nq5vDn6lTO-19" value="Option 2" style="text;html=1;align=center;verticalAlign=middle;whiteSpace=wrap;rounded=0;" vertex="1" parent="1">
          <mxGeometry x="430" y="520" width="60" height="30" as="geometry" />
        </mxCell>
        <mxCell id="qpkhU5V2J4nq5vDn6lTO-22" value="Option 3" style="text;html=1;align=center;verticalAlign=middle;whiteSpace=wrap;rounded=0;" vertex="1" parent="1">
          <mxGeometry x="575" y="520" width="60" height="30" as="geometry" />
        </mxCell>
        <mxCell id="qpkhU5V2J4nq5vDn6lTO-25" value="ChromaDB" style="rounded=1;whiteSpace=wrap;html=1;" vertex="1" parent="1">
          <mxGeometry x="400" y="740" width="120" height="60" as="geometry" />
        </mxCell>
        <mxCell id="qpkhU5V2J4nq5vDn6lTO-27" value="Vector Store" style="text;html=1;align=center;verticalAlign=middle;whiteSpace=wrap;rounded=0;" vertex="1" parent="1">
          <mxGeometry x="400" y="710" width="120" height="30" as="geometry" />
        </mxCell>
        <mxCell id="qpkhU5V2J4nq5vDn6lTO-31" value="" style="rounded=0;whiteSpace=wrap;html=1;fillColor=none;" vertex="1" parent="1">
          <mxGeometry x="370" y="715" width="180" height="110" as="geometry" />
        </mxCell>
        <mxCell id="qpkhU5V2J4nq5vDn6lTO-34" style="edgeStyle=orthogonalEdgeStyle;rounded=0;orthogonalLoop=1;jettySize=auto;html=1;entryX=0.5;entryY=0;entryDx=0;entryDy=0;" edge="1" parent="1" source="qpkhU5V2J4nq5vDn6lTO-32" target="qpkhU5V2J4nq5vDn6lTO-33">
          <mxGeometry relative="1" as="geometry" />
        </mxCell>
        <mxCell id="qpkhU5V2J4nq5vDn6lTO-32" value="Vector Similarity Search" style="rounded=1;whiteSpace=wrap;html=1;" vertex="1" parent="1">
          <mxGeometry x="455" y="865" width="120" height="60" as="geometry" />
        </mxCell>
        <mxCell id="qpkhU5V2J4nq5vDn6lTO-40" style="edgeStyle=orthogonalEdgeStyle;rounded=0;orthogonalLoop=1;jettySize=auto;html=1;entryX=1;entryY=0.5;entryDx=0;entryDy=0;" edge="1" parent="1" source="qpkhU5V2J4nq5vDn6lTO-33" target="qpkhU5V2J4nq5vDn6lTO-35">
          <mxGeometry relative="1" as="geometry" />
        </mxCell>
        <mxCell id="qpkhU5V2J4nq5vDn6lTO-33" value="Top-K Related Chunks" style="rounded=1;whiteSpace=wrap;html=1;" vertex="1" parent="1">
          <mxGeometry x="455" y="955" width="120" height="60" as="geometry" />
        </mxCell>
        <mxCell id="qpkhU5V2J4nq5vDn6lTO-35" value="Prompt Construction" style="rounded=1;whiteSpace=wrap;html=1;" vertex="1" parent="1">
          <mxGeometry x="110" y="1025" width="100" height="40" as="geometry" />
        </mxCell>
        <mxCell id="qpkhU5V2J4nq5vDn6lTO-36" value="Augmented Prompt" style="rounded=1;whiteSpace=wrap;html=1;" vertex="1" parent="1">
          <mxGeometry x="110" y="1095" width="100" height="40" as="geometry" />
        </mxCell>
        <mxCell id="qpkhU5V2J4nq5vDn6lTO-38" value="Context Augmentation" style="text;html=1;align=center;verticalAlign=middle;whiteSpace=wrap;rounded=0;" vertex="1" parent="1">
          <mxGeometry x="130" y="985" width="60" height="30" as="geometry" />
        </mxCell>
        <mxCell id="qpkhU5V2J4nq5vDn6lTO-57" style="edgeStyle=orthogonalEdgeStyle;rounded=0;orthogonalLoop=1;jettySize=auto;html=1;entryX=0.5;entryY=0;entryDx=0;entryDy=0;" edge="1" parent="1" source="qpkhU5V2J4nq5vDn6lTO-41" target="qpkhU5V2J4nq5vDn6lTO-56">
          <mxGeometry relative="1" as="geometry" />
        </mxCell>
        <mxCell id="qpkhU5V2J4nq5vDn6lTO-41" value="Final Response" style="rounded=1;whiteSpace=wrap;html=1;" vertex="1" parent="1">
          <mxGeometry x="90" y="1471" width="120" height="60" as="geometry" />
        </mxCell>
        <mxCell id="qpkhU5V2J4nq5vDn6lTO-58" style="edgeStyle=orthogonalEdgeStyle;rounded=0;orthogonalLoop=1;jettySize=auto;html=1;entryX=0.5;entryY=0;entryDx=0;entryDy=0;" edge="1" parent="1" source="qpkhU5V2J4nq5vDn6lTO-42" target="qpkhU5V2J4nq5vDn6lTO-56">
          <mxGeometry relative="1" as="geometry" />
        </mxCell>
        <mxCell id="qpkhU5V2J4nq5vDn6lTO-42" value="Reference Sources" style="rounded=1;whiteSpace=wrap;html=1;" vertex="1" parent="1">
          <mxGeometry x="275" y="1471" width="120" height="60" as="geometry" />
        </mxCell>
        <mxCell id="qpkhU5V2J4nq5vDn6lTO-52" style="edgeStyle=orthogonalEdgeStyle;rounded=0;orthogonalLoop=1;jettySize=auto;html=1;entryX=0.5;entryY=0;entryDx=0;entryDy=0;" edge="1" parent="1" source="qpkhU5V2J4nq5vDn6lTO-46" target="qpkhU5V2J4nq5vDn6lTO-49">
          <mxGeometry relative="1" as="geometry" />
        </mxCell>
        <mxCell id="qpkhU5V2J4nq5vDn6lTO-53" style="edgeStyle=orthogonalEdgeStyle;rounded=0;orthogonalLoop=1;jettySize=auto;html=1;entryX=0.5;entryY=0;entryDx=0;entryDy=0;" edge="1" parent="1" source="qpkhU5V2J4nq5vDn6lTO-46" target="qpkhU5V2J4nq5vDn6lTO-47">
          <mxGeometry relative="1" as="geometry" />
        </mxCell>
        <mxCell id="qpkhU5V2J4nq5vDn6lTO-46" value="LLM Model Selection" style="rhombus;whiteSpace=wrap;html=1;" vertex="1" parent="1">
          <mxGeometry x="95" y="1180" width="130" height="140" as="geometry" />
        </mxCell>
        <mxCell id="qpkhU5V2J4nq5vDn6lTO-54" style="edgeStyle=orthogonalEdgeStyle;rounded=0;orthogonalLoop=1;jettySize=auto;html=1;" edge="1" parent="1" source="qpkhU5V2J4nq5vDn6lTO-47" target="qpkhU5V2J4nq5vDn6lTO-41">
          <mxGeometry relative="1" as="geometry" />
        </mxCell>
        <mxCell id="qpkhU5V2J4nq5vDn6lTO-47" value="GPT-4" style="rounded=1;whiteSpace=wrap;html=1;" vertex="1" parent="1">
          <mxGeometry x="20" y="1330" width="60" height="40" as="geometry" />
        </mxCell>
        <mxCell id="qpkhU5V2J4nq5vDn6lTO-55" style="edgeStyle=orthogonalEdgeStyle;rounded=0;orthogonalLoop=1;jettySize=auto;html=1;" edge="1" parent="1" source="qpkhU5V2J4nq5vDn6lTO-49" target="qpkhU5V2J4nq5vDn6lTO-41">
          <mxGeometry relative="1" as="geometry" />
        </mxCell>
        <mxCell id="qpkhU5V2J4nq5vDn6lTO-49" value="Ollama Llama2" style="rounded=1;whiteSpace=wrap;html=1;" vertex="1" parent="1">
          <mxGeometry x="230" y="1325" width="60" height="50" as="geometry" />
        </mxCell>
        <mxCell id="qpkhU5V2J4nq5vDn6lTO-61" style="edgeStyle=orthogonalEdgeStyle;rounded=0;orthogonalLoop=1;jettySize=auto;html=1;entryX=0.5;entryY=0;entryDx=0;entryDy=0;" edge="1" parent="1" source="qpkhU5V2J4nq5vDn6lTO-56" target="qpkhU5V2J4nq5vDn6lTO-59">
          <mxGeometry relative="1" as="geometry" />
        </mxCell>
        <mxCell id="qpkhU5V2J4nq5vDn6lTO-56" value="Streamlit Interface" style="rounded=1;whiteSpace=wrap;html=1;" vertex="1" parent="1">
          <mxGeometry x="180" y="1600" width="120" height="60" as="geometry" />
        </mxCell>
        <mxCell id="qpkhU5V2J4nq5vDn6lTO-62" style="edgeStyle=orthogonalEdgeStyle;rounded=0;orthogonalLoop=1;jettySize=auto;html=1;entryX=0.5;entryY=0;entryDx=0;entryDy=0;" edge="1" parent="1" source="qpkhU5V2J4nq5vDn6lTO-59" target="qpkhU5V2J4nq5vDn6lTO-60">
          <mxGeometry relative="1" as="geometry" />
        </mxCell>
        <mxCell id="qpkhU5V2J4nq5vDn6lTO-59" value="User Query" style="rounded=1;whiteSpace=wrap;html=1;" vertex="1" parent="1">
          <mxGeometry x="520" y="1670" width="80" height="40" as="geometry" />
        </mxCell>
        <mxCell id="qpkhU5V2J4nq5vDn6lTO-64" style="edgeStyle=orthogonalEdgeStyle;rounded=0;orthogonalLoop=1;jettySize=auto;html=1;entryX=1;entryY=0.5;entryDx=0;entryDy=0;exitX=1;exitY=0.5;exitDx=0;exitDy=0;" edge="1" parent="1" source="qpkhU5V2J4nq5vDn6lTO-60" target="qpkhU5V2J4nq5vDn6lTO-32">
          <mxGeometry relative="1" as="geometry">
            <mxPoint x="590" y="1754" as="sourcePoint" />
            <mxPoint x="650" y="884" as="targetPoint" />
          </mxGeometry>
        </mxCell>
        <mxCell id="qpkhU5V2J4nq5vDn6lTO-60" value="Query Embedding" style="rounded=1;whiteSpace=wrap;html=1;" vertex="1" parent="1">
          <mxGeometry x="520" y="1770" width="80" height="40" as="geometry" />
        </mxCell>
        <mxCell id="qpkhU5V2J4nq5vDn6lTO-66" value="" style="rounded=0;whiteSpace=wrap;html=1;fillColor=none;" vertex="1" parent="1">
          <mxGeometry x="430" y="840" width="270" height="980" as="geometry" />
        </mxCell>
        <mxCell id="qpkhU5V2J4nq5vDn6lTO-67" value="Query Processing" style="text;html=1;align=center;verticalAlign=middle;whiteSpace=wrap;rounded=0;" vertex="1" parent="1">
          <mxGeometry x="505" y="835" width="130" height="30" as="geometry" />
        </mxCell>
        <mxCell id="qpkhU5V2J4nq5vDn6lTO-68" value="" style="rounded=0;whiteSpace=wrap;html=1;fillColor=none;" vertex="1" parent="1">
          <mxGeometry x="60" y="980" width="200" height="167.5" as="geometry" />
        </mxCell>
        <mxCell id="qpkhU5V2J4nq5vDn6lTO-69" value="" style="rounded=0;whiteSpace=wrap;html=1;fillColor=none;" vertex="1" parent="1">
          <mxGeometry x="7.5" y="1160" width="285" height="251" as="geometry" />
        </mxCell>
        <mxCell id="qpkhU5V2J4nq5vDn6lTO-70" value="LLM Layer" style="text;html=1;align=center;verticalAlign=middle;whiteSpace=wrap;rounded=0;" vertex="1" parent="1">
          <mxGeometry x="70" y="1160" width="60" height="30" as="geometry" />
        </mxCell>
        <mxCell id="qpkhU5V2J4nq5vDn6lTO-71" value="" style="rounded=0;whiteSpace=wrap;html=1;fillColor=none;" vertex="1" parent="1">
          <mxGeometry x="50" y="1446" width="360" height="110" as="geometry" />
        </mxCell>
        <mxCell id="qpkhU5V2J4nq5vDn6lTO-72" value="Response Generation" style="text;html=1;align=center;verticalAlign=middle;whiteSpace=wrap;rounded=0;" vertex="1" parent="1">
          <mxGeometry x="170" y="1446" width="140" height="30" as="geometry" />
        </mxCell>
        <mxCell id="qpkhU5V2J4nq5vDn6lTO-74" value="" style="rounded=0;whiteSpace=wrap;html=1;fillColor=none;" vertex="1" parent="1">
          <mxGeometry x="145" y="1580" width="190" height="110" as="geometry" />
        </mxCell>
        <mxCell id="qpkhU5V2J4nq5vDn6lTO-75" value="UI Layer" style="text;html=1;align=center;verticalAlign=middle;whiteSpace=wrap;rounded=0;" vertex="1" parent="1">
          <mxGeometry x="145" y="1660" width="60" height="30" as="geometry" />
        </mxCell>
      </root>
    </mxGraphModel>
  </diagram>
</mxfile>
